<svg width="100" height="100" viewBox="0 0 100 100" fill="none" xmlns="http://www.w3.org/2000/svg">
<rect width="100" height="100" fill="#ffffff"/>
<path d="M50 54.5C51.5913 54.5 53.1174 53.8679 54.2426 52.7426C55.3679 51.6174 56 50.0913 56 48.5V39.5C56 37.9087 55.3679 36.3826 54.2426 35.2574C53.1174 34.1321 51.5913 33.5 50 33.5C48.4087 33.5 46.8826 34.1321 45.7574 35.2574C44.6321 36.3826 44 37.9087 44 39.5V48.5C44 50.0913 44.6321 51.6174 45.7574 52.7426C46.8826 53.8679 48.4087 54.5 50 54.5ZM47 39.5C47 38.7044 47.3161 37.9413 47.8787 37.3787C48.4413 36.8161 49.2044 36.5 50 36.5C50.7956 36.5 51.5587 36.8161 52.1213 37.3787C52.6839 37.9413 53 38.7044 53 39.5V48.5C53 49.2956 52.6839 50.0587 52.1213 50.6213C51.5587 51.1839 50.7956 51.5 50 51.5C49.2044 51.5 48.4413 51.1839 47.8787 50.6213C47.3161 50.0587 47 49.2956 47 48.5V39.5ZM62 48.5C62 48.1022 61.842 47.7206 61.5607 47.4393C61.2794 47.158 60.8978 47 60.5 47C60.1022 47 59.7206 47.158 59.4393 47.4393C59.158 47.7206 59 48.1022 59 48.5C59 50.8869 58.0518 53.1761 56.364 54.864C54.6761 56.5518 52.3869 57.5 50 57.5C47.6131 57.5 45.3239 56.5518 43.636 54.864C41.9482 53.1761 41 50.8869 41 48.5C41 48.1022 40.842 47.7206 40.5607 47.4393C40.2794 47.158 39.8978 47 39.5 47C39.1022 47 38.7206 47.158 38.4393 47.4393C38.158 47.7206 38 48.1022 38 48.5C38.0026 51.4209 39.0706 54.2406 41.0036 56.4305C42.9366 58.6203 45.602 60.0299 48.5 60.395V63.5H45.5C45.1022 63.5 44.7206 63.658 44.4393 63.9393C44.158 64.2206 44 64.6022 44 65C44 65.3978 44.158 65.7794 44.4393 66.0607C44.7206 66.342 45.1022 66.5 45.5 66.5H54.5C54.8978 66.5 55.2794 66.342 55.5607 66.0607C55.842 65.7794 56 65.3978 56 65C56 64.6022 55.842 64.2206 55.5607 63.9393C55.2794 63.658 54.8978 63.5 54.5 63.5H51.5V60.395C54.398 60.0299 57.0634 58.6203 58.9964 56.4305C60.9294 54.2406 61.9974 51.4209 62 48.5V48.5Z" fill="#16151a"/>
</svg>
