<svg width="86" height="29" viewBox="0 0 86 29" fill="none" xmlns="http://www.w3.org/2000/svg">
<rect y="19" width="4" height="4" rx="1" fill="#25A56A"/>
<rect x="5" y="19" width="4" height="4" rx="1" fill="#25A56A"/>
<rect x="10" y="19" width="4" height="4" rx="1" fill="#25A56A"/>
<rect x="15" y="19" width="4" height="4" rx="1" fill="#25A56A"/>
<rect y="14" width="4" height="4" rx="1" fill="#25A56A" fill-opacity="0.25"/>
<rect x="5" y="14" width="4" height="4" rx="1" fill="#25A56A"/>
<rect x="10" y="14" width="4" height="4" rx="1" fill="#25A56A"/>
<rect x="15" y="14" width="4" height="4" rx="1" fill="#25A56A"/>
<rect y="9" width="4" height="4" rx="1" fill="#25A56A" fill-opacity="0.25"/>
<rect x="5" y="9" width="4" height="4" rx="1" fill="#25A56A" fill-opacity="0.25"/>
<rect x="10" y="9" width="4" height="4" rx="1" fill="#25A56A"/>
<rect x="15" y="9" width="4" height="4" rx="1" fill="#25A56A" fill-opacity="0.25"/>
<path d="M36.9119 9.90909H34.1761L30.8693 19.983H30.733L27.4176 9.90909H24.6818L29.4375 23H32.1648L36.9119 9.90909ZM44.3523 23.2642C48.0426 23.2642 50.4545 20.5625 50.4545 16.5142C50.4545 12.4403 48.0426 9.73864 44.3523 9.73864C40.6619 9.73864 38.25 12.4403 38.25 16.5142C38.25 20.5625 40.6619 23.2642 44.3523 23.2642ZM44.3608 21.125C41.9489 21.125 40.8239 19.0199 40.8239 16.5057C40.8239 14 41.9489 11.8693 44.3608 11.8693C46.7557 11.8693 47.8807 14 47.8807 16.5057C47.8807 19.0199 46.7557 21.125 44.3608 21.125ZM55.8473 5.54545H53.299V23H55.8473V5.54545ZM61.8239 15.2273C61.8239 13.1392 63.1023 11.946 64.875 11.946C66.6051 11.946 67.6534 13.0795 67.6534 14.9801V23H70.2017V14.6733C70.2017 11.4347 68.4205 9.73864 65.7443 9.73864C63.7756 9.73864 62.4886 10.6506 61.8835 12.0398H61.7216V9.90909H59.2756V23H61.8239V15.2273ZM77.429 23.2898C79.5938 23.2898 80.8125 22.1903 81.2983 21.2102H81.4006V23H83.8892V14.3068C83.8892 10.4972 80.8892 9.73864 78.8097 9.73864C76.4403 9.73864 74.2585 10.6932 73.4062 13.0795L75.8011 13.625C76.1761 12.696 77.1307 11.8011 78.8438 11.8011C80.4886 11.8011 81.3324 12.6619 81.3324 14.1449V14.2045C81.3324 15.1335 80.3778 15.1165 78.0256 15.3892C75.5455 15.679 73.0057 16.3267 73.0057 19.3011C73.0057 21.875 74.9403 23.2898 77.429 23.2898ZM77.983 21.2443C76.5426 21.2443 75.5028 20.5966 75.5028 19.3352C75.5028 17.9716 76.7131 17.4858 78.1875 17.2898C79.0142 17.179 80.9744 16.9574 81.3409 16.5909V18.2784C81.3409 19.8295 80.1051 21.2443 77.983 21.2443Z" fill="white"/>
</svg>
